<svg width="1769" height="644" viewBox="0 0 1769 644" fill="none" xmlns="http://www.w3.org/2000/svg">
<rect width="1769" height="644" rx="28" fill="#EBD1E4"/>
<path d="M178 248.75C181 254.25 184.417 261.083 188.25 269.25C192.25 277.25 196.333 286 200.5 295.5C204.833 304.833 209.083 314.417 213.25 324.25C217.417 334.083 221.333 343.333 225 352C228.667 343.333 232.583 334.083 236.75 324.25C240.917 314.417 245.083 304.833 249.25 295.5C253.583 286 257.667 277.25 261.5 269.25C265.5 261.083 269 254.25 272 248.75H307.5C309.167 260.25 310.667 273.167 312 287.5C313.5 301.667 314.75 316.5 315.75 332C316.917 347.333 317.917 362.75 318.75 378.25C319.75 393.75 320.583 408.333 321.25 422H283.25C282.75 405.167 282.083 386.833 281.25 367C280.417 347.167 279.167 327.167 277.5 307C274.5 314 271.167 321.75 267.5 330.25C263.833 338.75 260.167 347.25 256.5 355.75C253 364.25 249.583 372.417 246.25 380.25C242.917 387.917 240.083 394.5 237.75 400H210.5C208.167 394.5 205.333 387.917 202 380.25C198.667 372.417 195.167 364.25 191.5 355.75C188 347.25 184.417 338.75 180.75 330.25C177.083 321.75 173.75 314 170.75 307C169.083 327.167 167.833 347.167 167 367C166.167 386.833 165.5 405.167 165 422H127C127.667 408.333 128.417 393.75 129.25 378.25C130.25 362.75 131.25 347.333 132.25 332C133.417 316.5 134.667 301.667 136 287.5C137.5 273.167 139.083 260.25 140.75 248.75H178ZM472.365 422C470.532 416 468.449 409.833 466.115 403.5C463.949 397.167 461.782 390.833 459.615 384.5H392.115C389.949 390.833 387.699 397.167 385.365 403.5C383.199 409.833 381.199 416 379.365 422H338.865C345.365 403.333 351.532 386.083 357.365 370.25C363.199 354.417 368.865 339.5 374.365 325.5C380.032 311.5 385.532 298.25 390.865 285.75C396.365 273.083 402.032 260.75 407.865 248.75H445.115C450.782 260.75 456.365 273.083 461.865 285.75C467.365 298.25 472.865 311.5 478.365 325.5C484.032 339.5 489.782 354.417 495.615 370.25C501.449 386.083 507.615 403.333 514.115 422H472.365ZM425.615 288C424.782 290.5 423.532 293.917 421.865 298.25C420.199 302.583 418.282 307.583 416.115 313.25C413.949 318.917 411.532 325.167 408.865 332C406.365 338.833 403.782 346 401.115 353.5H450.365C447.699 346 445.115 338.833 442.615 332C440.115 325.167 437.699 318.917 435.365 313.25C433.199 307.583 431.282 302.583 429.615 298.25C427.949 293.917 426.615 290.5 425.615 288ZM587.291 246.75C613.291 246.75 633.208 251.417 647.041 260.75C660.874 269.917 667.791 284.25 667.791 303.75C667.791 315.917 664.958 325.833 659.291 333.5C653.791 341 645.791 346.917 635.291 351.25C638.791 355.583 642.458 360.583 646.291 366.25C650.124 371.75 653.874 377.583 657.541 383.75C661.374 389.75 665.041 396.083 668.541 402.75C672.041 409.25 675.291 415.667 678.291 422H634.541C631.374 416.333 628.124 410.583 624.791 404.75C621.624 398.917 618.291 393.25 614.791 387.75C611.458 382.25 608.124 377.083 604.791 372.25C601.458 367.25 598.124 362.75 594.791 358.75H575.541V422H536.541V251.25C545.041 249.583 553.791 248.417 562.791 247.75C571.958 247.083 580.124 246.75 587.291 246.75ZM589.541 280C586.708 280 584.124 280.083 581.791 280.25C579.624 280.417 577.541 280.583 575.541 280.75V327.75H586.541C601.208 327.75 611.708 325.917 618.041 322.25C624.374 318.583 627.541 312.333 627.541 303.5C627.541 295 624.291 289 617.791 285.5C611.458 281.833 602.041 280 589.541 280ZM805.539 422C802.039 416.333 797.872 410.25 793.039 403.75C788.372 397.083 783.206 390.5 777.539 384C772.039 377.333 766.289 371 760.289 365C754.289 358.833 748.289 353.417 742.289 348.75V422H703.289V248.75H742.289V314.25C752.456 303.583 762.622 292.5 772.789 281C783.122 269.333 792.706 258.583 801.539 248.75H847.789C835.956 262.75 824.039 276.25 812.039 289.25C800.206 302.25 787.706 315.333 774.539 328.5C788.372 340 801.706 353.667 814.539 369.5C827.539 385.333 839.956 402.833 851.789 422H805.539ZM874.188 422V248.75H991.188V281.5H913.188V315.5H982.438V347.5H913.188V389.25H996.938V422H874.188ZM1154.3 248.75V282H1102.05V422H1063.05V282H1010.8V248.75H1154.3ZM1206.25 335.25C1206.25 343.75 1207.25 351.417 1209.25 358.25C1211.42 365.083 1214.42 371 1218.25 376C1222.25 380.833 1227.09 384.583 1232.75 387.25C1238.42 389.917 1244.92 391.25 1252.25 391.25C1259.42 391.25 1265.84 389.917 1271.5 387.25C1277.34 384.583 1282.17 380.833 1286 376C1290 371 1293 365.083 1295 358.25C1297.17 351.417 1298.25 343.75 1298.25 335.25C1298.25 326.75 1297.17 319.083 1295 312.25C1293 305.25 1290 299.333 1286 294.5C1282.17 289.5 1277.34 285.667 1271.5 283C1265.84 280.333 1259.42 279 1252.25 279C1244.92 279 1238.42 280.417 1232.75 283.25C1227.09 285.917 1222.25 289.75 1218.25 294.75C1214.42 299.583 1211.42 305.5 1209.25 312.5C1207.25 319.333 1206.25 326.917 1206.25 335.25ZM1338.5 335.25C1338.5 350.083 1336.25 363.167 1331.75 374.5C1327.42 385.667 1321.42 395.083 1313.75 402.75C1306.09 410.25 1296.92 415.917 1286.25 419.75C1275.75 423.583 1264.42 425.5 1252.25 425.5C1240.42 425.5 1229.25 423.583 1218.75 419.75C1208.25 415.917 1199.09 410.25 1191.25 402.75C1183.42 395.083 1177.25 385.667 1172.75 374.5C1168.25 363.167 1166 350.083 1166 335.25C1166 320.417 1168.34 307.417 1173 296.25C1177.67 284.917 1183.92 275.417 1191.75 267.75C1199.75 260.083 1208.92 254.333 1219.25 250.5C1229.75 246.667 1240.75 244.75 1252.25 244.75C1264.09 244.75 1275.25 246.667 1285.75 250.5C1296.25 254.333 1305.42 260.083 1313.25 267.75C1321.09 275.417 1327.25 284.917 1331.75 296.25C1336.25 307.417 1338.5 320.417 1338.5 335.25ZM1493.65 248.75V282H1441.4V422H1402.4V282H1350.15V248.75H1493.65ZM1545.61 335.25C1545.61 343.75 1546.61 351.417 1548.61 358.25C1550.78 365.083 1553.78 371 1557.61 376C1561.61 380.833 1566.44 384.583 1572.11 387.25C1577.78 389.917 1584.28 391.25 1591.61 391.25C1598.78 391.25 1605.19 389.917 1610.86 387.25C1616.69 384.583 1621.53 380.833 1625.36 376C1629.36 371 1632.36 365.083 1634.36 358.25C1636.53 351.417 1637.61 343.75 1637.61 335.25C1637.61 326.75 1636.53 319.083 1634.36 312.25C1632.36 305.25 1629.36 299.333 1625.36 294.5C1621.53 289.5 1616.69 285.667 1610.86 283C1605.19 280.333 1598.78 279 1591.61 279C1584.28 279 1577.78 280.417 1572.11 283.25C1566.44 285.917 1561.61 289.75 1557.61 294.75C1553.78 299.583 1550.78 305.5 1548.61 312.5C1546.61 319.333 1545.61 326.917 1545.61 335.25ZM1677.86 335.25C1677.86 350.083 1675.61 363.167 1671.11 374.5C1666.78 385.667 1660.78 395.083 1653.11 402.75C1645.44 410.25 1636.28 415.917 1625.61 419.75C1615.11 423.583 1603.78 425.5 1591.61 425.5C1579.78 425.5 1568.61 423.583 1558.11 419.75C1547.61 415.917 1538.44 410.25 1530.61 402.75C1522.78 395.083 1516.61 385.667 1512.11 374.5C1507.61 363.167 1505.36 350.083 1505.36 335.25C1505.36 320.417 1507.69 307.417 1512.36 296.25C1517.03 284.917 1523.28 275.417 1531.11 267.75C1539.11 260.083 1548.28 254.333 1558.61 250.5C1569.11 246.667 1580.11 244.75 1591.61 244.75C1603.44 244.75 1614.61 246.667 1625.11 250.5C1635.61 254.333 1644.78 260.083 1652.61 267.75C1660.44 275.417 1666.61 284.917 1671.11 296.25C1675.61 307.417 1677.86 320.417 1677.86 335.25Z" fill="#CD84C9"/>
<path d="M163 241.75C166 247.25 169.417 254.083 173.25 262.25C177.25 270.25 181.333 279 185.5 288.5C189.833 297.833 194.083 307.417 198.25 317.25C202.417 327.083 206.333 336.333 210 345C213.667 336.333 217.583 327.083 221.75 317.25C225.917 307.417 230.083 297.833 234.25 288.5C238.583 279 242.667 270.25 246.5 262.25C250.5 254.083 254 247.25 257 241.75H292.5C294.167 253.25 295.667 266.167 297 280.5C298.5 294.667 299.75 309.5 300.75 325C301.917 340.333 302.917 355.75 303.75 371.25C304.75 386.75 305.583 401.333 306.25 415H268.25C267.75 398.167 267.083 379.833 266.25 360C265.417 340.167 264.167 320.167 262.5 300C259.5 307 256.167 314.75 252.5 323.25C248.833 331.75 245.167 340.25 241.5 348.75C238 357.25 234.583 365.417 231.25 373.25C227.917 380.917 225.083 387.5 222.75 393H195.5C193.167 387.5 190.333 380.917 187 373.25C183.667 365.417 180.167 357.25 176.5 348.75C173 340.25 169.417 331.75 165.75 323.25C162.083 314.75 158.75 307 155.75 300C154.083 320.167 152.833 340.167 152 360C151.167 379.833 150.5 398.167 150 415H112C112.667 401.333 113.417 386.75 114.25 371.25C115.25 355.75 116.25 340.333 117.25 325C118.417 309.5 119.667 294.667 121 280.5C122.5 266.167 124.083 253.25 125.75 241.75H163ZM457.365 415C455.532 409 453.449 402.833 451.115 396.5C448.949 390.167 446.782 383.833 444.615 377.5H377.115C374.949 383.833 372.699 390.167 370.365 396.5C368.199 402.833 366.199 409 364.365 415H323.865C330.365 396.333 336.532 379.083 342.365 363.25C348.199 347.417 353.865 332.5 359.365 318.5C365.032 304.5 370.532 291.25 375.865 278.75C381.365 266.083 387.032 253.75 392.865 241.75H430.115C435.782 253.75 441.365 266.083 446.865 278.75C452.365 291.25 457.865 304.5 463.365 318.5C469.032 332.5 474.782 347.417 480.615 363.25C486.449 379.083 492.615 396.333 499.115 415H457.365ZM410.615 281C409.782 283.5 408.532 286.917 406.865 291.25C405.199 295.583 403.282 300.583 401.115 306.25C398.949 311.917 396.532 318.167 393.865 325C391.365 331.833 388.782 339 386.115 346.5H435.365C432.699 339 430.115 331.833 427.615 325C425.115 318.167 422.699 311.917 420.365 306.25C418.199 300.583 416.282 295.583 414.615 291.25C412.949 286.917 411.615 283.5 410.615 281ZM572.291 239.75C598.291 239.75 618.208 244.417 632.041 253.75C645.874 262.917 652.791 277.25 652.791 296.75C652.791 308.917 649.958 318.833 644.291 326.5C638.791 334 630.791 339.917 620.291 344.25C623.791 348.583 627.458 353.583 631.291 359.25C635.124 364.75 638.874 370.583 642.541 376.75C646.374 382.75 650.041 389.083 653.541 395.75C657.041 402.25 660.291 408.667 663.291 415H619.541C616.374 409.333 613.124 403.583 609.791 397.75C606.624 391.917 603.291 386.25 599.791 380.75C596.458 375.25 593.124 370.083 589.791 365.25C586.458 360.25 583.124 355.75 579.791 351.75H560.541V415H521.541V244.25C530.041 242.583 538.791 241.417 547.791 240.75C556.958 240.083 565.124 239.75 572.291 239.75ZM574.541 273C571.708 273 569.124 273.083 566.791 273.25C564.624 273.417 562.541 273.583 560.541 273.75V320.75H571.541C586.208 320.75 596.708 318.917 603.041 315.25C609.374 311.583 612.541 305.333 612.541 296.5C612.541 288 609.291 282 602.791 278.5C596.458 274.833 587.041 273 574.541 273ZM790.539 415C787.039 409.333 782.872 403.25 778.039 396.75C773.372 390.083 768.206 383.5 762.539 377C757.039 370.333 751.289 364 745.289 358C739.289 351.833 733.289 346.417 727.289 341.75V415H688.289V241.75H727.289V307.25C737.456 296.583 747.622 285.5 757.789 274C768.122 262.333 777.706 251.583 786.539 241.75H832.789C820.956 255.75 809.039 269.25 797.039 282.25C785.206 295.25 772.706 308.333 759.539 321.5C773.372 333 786.706 346.667 799.539 362.5C812.539 378.333 824.956 395.833 836.789 415H790.539ZM859.188 415V241.75H976.188V274.5H898.188V308.5H967.438V340.5H898.188V382.25H981.938V415H859.188ZM1139.3 241.75V275H1087.05V415H1048.05V275H995.799V241.75H1139.3ZM1191.25 328.25C1191.25 336.75 1192.25 344.417 1194.25 351.25C1196.42 358.083 1199.42 364 1203.25 369C1207.25 373.833 1212.09 377.583 1217.75 380.25C1223.42 382.917 1229.92 384.25 1237.25 384.25C1244.42 384.25 1250.84 382.917 1256.5 380.25C1262.34 377.583 1267.17 373.833 1271 369C1275 364 1278 358.083 1280 351.25C1282.17 344.417 1283.25 336.75 1283.25 328.25C1283.25 319.75 1282.17 312.083 1280 305.25C1278 298.25 1275 292.333 1271 287.5C1267.17 282.5 1262.34 278.667 1256.5 276C1250.84 273.333 1244.42 272 1237.25 272C1229.92 272 1223.42 273.417 1217.75 276.25C1212.09 278.917 1207.25 282.75 1203.25 287.75C1199.42 292.583 1196.42 298.5 1194.25 305.5C1192.25 312.333 1191.25 319.917 1191.25 328.25ZM1323.5 328.25C1323.5 343.083 1321.25 356.167 1316.75 367.5C1312.42 378.667 1306.42 388.083 1298.75 395.75C1291.09 403.25 1281.92 408.917 1271.25 412.75C1260.75 416.583 1249.42 418.5 1237.25 418.5C1225.42 418.5 1214.25 416.583 1203.75 412.75C1193.25 408.917 1184.09 403.25 1176.25 395.75C1168.42 388.083 1162.25 378.667 1157.75 367.5C1153.25 356.167 1151 343.083 1151 328.25C1151 313.417 1153.34 300.417 1158 289.25C1162.67 277.917 1168.92 268.417 1176.75 260.75C1184.75 253.083 1193.92 247.333 1204.25 243.5C1214.75 239.667 1225.75 237.75 1237.25 237.75C1249.09 237.75 1260.25 239.667 1270.75 243.5C1281.25 247.333 1290.42 253.083 1298.25 260.75C1306.09 268.417 1312.25 277.917 1316.75 289.25C1321.25 300.417 1323.5 313.417 1323.5 328.25ZM1478.65 241.75V275H1426.4V415H1387.4V275H1335.15V241.75H1478.65ZM1530.61 328.25C1530.61 336.75 1531.61 344.417 1533.61 351.25C1535.78 358.083 1538.78 364 1542.61 369C1546.61 373.833 1551.44 377.583 1557.11 380.25C1562.78 382.917 1569.28 384.25 1576.61 384.25C1583.78 384.25 1590.19 382.917 1595.86 380.25C1601.69 377.583 1606.53 373.833 1610.36 369C1614.36 364 1617.36 358.083 1619.36 351.25C1621.53 344.417 1622.61 336.75 1622.61 328.25C1622.61 319.75 1621.53 312.083 1619.36 305.25C1617.36 298.25 1614.36 292.333 1610.36 287.5C1606.53 282.5 1601.69 278.667 1595.86 276C1590.19 273.333 1583.78 272 1576.61 272C1569.28 272 1562.78 273.417 1557.11 276.25C1551.44 278.917 1546.61 282.75 1542.61 287.75C1538.78 292.583 1535.78 298.5 1533.61 305.5C1531.61 312.333 1530.61 319.917 1530.61 328.25ZM1662.86 328.25C1662.86 343.083 1660.61 356.167 1656.11 367.5C1651.78 378.667 1645.78 388.083 1638.11 395.75C1630.44 403.25 1621.28 408.917 1610.61 412.75C1600.11 416.583 1588.78 418.5 1576.61 418.5C1564.78 418.5 1553.61 416.583 1543.11 412.75C1532.61 408.917 1523.44 403.25 1515.61 395.75C1507.78 388.083 1501.61 378.667 1497.11 367.5C1492.61 356.167 1490.36 343.083 1490.36 328.25C1490.36 313.417 1492.69 300.417 1497.36 289.25C1502.03 277.917 1508.28 268.417 1516.11 260.75C1524.11 253.083 1533.28 247.333 1543.61 243.5C1554.11 239.667 1565.11 237.75 1576.61 237.75C1588.44 237.75 1599.61 239.667 1610.11 243.5C1620.61 247.333 1629.78 253.083 1637.61 260.75C1645.44 268.417 1651.61 277.917 1656.11 289.25C1660.61 300.417 1662.86 313.417 1662.86 328.25Z" fill="white"/>
<path d="M149.32 130.576C150.088 133.2 150.92 136.176 151.816 139.504C152.776 142.768 153.768 146.16 154.792 149.68C155.88 153.2 156.968 156.72 158.056 160.24C159.144 163.76 160.2 167.024 161.224 170.032C162.056 166.768 162.888 163.216 163.72 159.376C164.616 155.536 165.448 151.568 166.216 147.472C166.984 143.376 167.72 139.312 168.424 135.28C169.192 131.184 169.896 127.248 170.536 123.472H186.088C183.848 134.608 181.256 145.904 178.312 157.36C175.432 168.816 172.296 179.696 168.904 190H155.176C152.936 183.856 150.76 177.424 148.648 170.704C146.536 163.92 144.456 157.136 142.408 150.352C140.36 157.136 138.312 163.92 136.264 170.704C134.216 177.424 132.072 183.856 129.832 190H116.104C112.712 179.696 109.544 168.816 106.6 157.36C103.72 145.904 101.16 134.608 98.92 123.472H115.144C115.784 127.248 116.488 131.184 117.256 135.28C118.024 139.312 118.824 143.376 119.656 147.472C120.488 151.568 121.32 155.536 122.152 159.376C123.048 163.216 123.944 166.768 124.84 170.032C125.992 166.896 127.112 163.568 128.2 160.048C129.288 156.528 130.344 153.008 131.368 149.488C132.392 145.968 133.32 142.576 134.152 139.312C135.048 136.048 135.848 133.136 136.552 130.576H149.32ZM189.164 165.136C189.164 160.656 189.836 156.752 191.18 153.424C192.588 150.032 194.412 147.216 196.652 144.976C198.892 142.736 201.452 141.04 204.332 139.888C207.276 138.736 210.284 138.16 213.356 138.16C220.524 138.16 226.188 140.368 230.348 144.784C234.508 149.136 236.588 155.568 236.588 164.08C236.588 164.912 236.556 165.84 236.492 166.864C236.428 167.824 236.364 168.688 236.3 169.456H203.852C204.172 172.4 205.548 174.736 207.98 176.464C210.412 178.192 213.676 179.056 217.772 179.056C220.396 179.056 222.956 178.832 225.452 178.384C228.012 177.872 230.092 177.264 231.692 176.56L233.612 188.176C232.844 188.56 231.82 188.944 230.54 189.328C229.26 189.712 227.82 190.032 226.22 190.288C224.684 190.608 223.02 190.864 221.228 191.056C219.436 191.248 217.644 191.344 215.852 191.344C211.308 191.344 207.34 190.672 203.948 189.328C200.62 187.984 197.836 186.16 195.596 183.856C193.42 181.488 191.788 178.704 190.7 175.504C189.676 172.304 189.164 168.848 189.164 165.136ZM222.764 159.664C222.7 158.448 222.476 157.264 222.092 156.112C221.772 154.96 221.228 153.936 220.46 153.04C219.756 152.144 218.828 151.408 217.676 150.832C216.588 150.256 215.212 149.968 213.548 149.968C211.948 149.968 210.572 150.256 209.42 150.832C208.268 151.344 207.308 152.048 206.54 152.944C205.772 153.84 205.164 154.896 204.716 156.112C204.332 157.264 204.044 158.448 203.852 159.664H222.764ZM267.786 190.96C263.626 190.896 260.234 190.448 257.61 189.616C255.05 188.784 253.002 187.632 251.466 186.16C249.994 184.624 248.97 182.8 248.394 180.688C247.882 178.512 247.626 176.08 247.626 173.392V117.808L261.93 115.504V170.512C261.93 171.792 262.026 172.944 262.218 173.968C262.41 174.992 262.762 175.856 263.274 176.56C263.85 177.264 264.65 177.84 265.674 178.288C266.698 178.736 268.074 179.024 269.802 179.152L267.786 190.96ZM275.601 164.752C275.601 161.104 276.177 157.68 277.329 154.48C278.545 151.216 280.273 148.4 282.513 146.032C284.753 143.6 287.473 141.68 290.673 140.272C293.873 138.864 297.521 138.16 301.617 138.16C304.305 138.16 306.769 138.416 309.009 138.928C311.249 139.376 313.425 140.048 315.537 140.944L312.561 152.368C311.217 151.856 309.745 151.408 308.145 151.024C306.545 150.64 304.753 150.448 302.769 150.448C298.545 150.448 295.377 151.76 293.265 154.384C291.217 157.008 290.193 160.464 290.193 164.752C290.193 169.296 291.153 172.816 293.073 175.312C295.057 177.808 298.481 179.056 303.345 179.056C305.073 179.056 306.929 178.896 308.913 178.576C310.897 178.256 312.721 177.744 314.385 177.04L316.401 188.752C314.737 189.456 312.657 190.064 310.161 190.576C307.665 191.088 304.913 191.344 301.905 191.344C297.297 191.344 293.329 190.672 290.001 189.328C286.673 187.92 283.921 186.032 281.745 183.664C279.633 181.296 278.065 178.512 277.041 175.312C276.081 172.048 275.601 168.528 275.601 164.752ZM370.796 164.656C370.796 168.624 370.22 172.272 369.068 175.6C367.916 178.864 366.252 181.68 364.076 184.048C361.9 186.352 359.276 188.144 356.204 189.424C353.196 190.704 349.804 191.344 346.028 191.344C342.316 191.344 338.924 190.704 335.852 189.424C332.844 188.144 330.252 186.352 328.076 184.048C325.9 181.68 324.204 178.864 322.988 175.6C321.772 172.272 321.164 168.624 321.164 164.656C321.164 160.688 321.772 157.072 322.988 153.808C324.268 150.544 325.996 147.76 328.172 145.456C330.412 143.152 333.036 141.36 336.044 140.08C339.116 138.8 342.444 138.16 346.028 138.16C349.676 138.16 353.004 138.8 356.012 140.08C359.084 141.36 361.708 143.152 363.884 145.456C366.06 147.76 367.756 150.544 368.972 153.808C370.188 157.072 370.796 160.688 370.796 164.656ZM356.204 164.656C356.204 160.24 355.308 156.784 353.516 154.288C351.788 151.728 349.292 150.448 346.028 150.448C342.764 150.448 340.236 151.728 338.444 154.288C336.652 156.784 335.756 160.24 335.756 164.656C335.756 169.072 336.652 172.592 338.444 175.216C340.236 177.776 342.764 179.056 346.028 179.056C349.292 179.056 351.788 177.776 353.516 175.216C355.308 172.592 356.204 169.072 356.204 164.656ZM409.62 163.216C409.62 158.608 409.012 155.344 407.796 153.424C406.644 151.504 404.628 150.544 401.748 150.544C400.852 150.544 399.924 150.608 398.964 150.736C398.004 150.8 397.076 150.896 396.18 151.024V190H381.876V141.232C383.092 140.912 384.5 140.592 386.1 140.272C387.764 139.888 389.492 139.568 391.284 139.312C393.14 138.992 395.028 138.768 396.948 138.64C398.868 138.448 400.756 138.352 402.612 138.352C406.26 138.352 409.204 138.832 411.444 139.792C413.748 140.688 415.636 141.776 417.108 143.056C419.156 141.584 421.492 140.432 424.116 139.6C426.804 138.768 429.268 138.352 431.508 138.352C435.54 138.352 438.836 138.928 441.396 140.08C444.02 141.168 446.1 142.736 447.636 144.784C449.172 146.832 450.228 149.264 450.804 152.08C451.38 154.896 451.668 158.032 451.668 161.488V190H437.364V163.216C437.364 158.608 436.756 155.344 435.54 153.424C434.388 151.504 432.372 150.544 429.492 150.544C428.724 150.544 427.636 150.736 426.228 151.12C424.884 151.504 423.764 151.984 422.868 152.56C423.316 154.032 423.604 155.6 423.732 157.264C423.86 158.864 423.924 160.592 423.924 162.448V190H409.62V163.216ZM462.258 165.136C462.258 160.656 462.93 156.752 464.273 153.424C465.682 150.032 467.506 147.216 469.746 144.976C471.986 142.736 474.546 141.04 477.426 139.888C480.37 138.736 483.378 138.16 486.45 138.16C493.618 138.16 499.282 140.368 503.442 144.784C507.602 149.136 509.682 155.568 509.682 164.08C509.682 164.912 509.65 165.84 509.586 166.864C509.522 167.824 509.458 168.688 509.394 169.456H476.946C477.266 172.4 478.642 174.736 481.074 176.464C483.506 178.192 486.77 179.056 490.866 179.056C493.49 179.056 496.05 178.832 498.546 178.384C501.106 177.872 503.186 177.264 504.786 176.56L506.706 188.176C505.938 188.56 504.914 188.944 503.634 189.328C502.354 189.712 500.914 190.032 499.314 190.288C497.778 190.608 496.114 190.864 494.322 191.056C492.53 191.248 490.738 191.344 488.946 191.344C484.402 191.344 480.434 190.672 477.042 189.328C473.714 187.984 470.93 186.16 468.69 183.856C466.514 181.488 464.882 178.704 463.794 175.504C462.77 172.304 462.258 168.848 462.258 165.136ZM495.858 159.664C495.794 158.448 495.57 157.264 495.186 156.112C494.866 154.96 494.322 153.936 493.554 153.04C492.85 152.144 491.922 151.408 490.77 150.832C489.682 150.256 488.306 149.968 486.642 149.968C485.042 149.968 483.666 150.256 482.514 150.832C481.362 151.344 480.402 152.048 479.634 152.944C478.866 153.84 478.258 154.896 477.81 156.112C477.426 157.264 477.138 158.448 476.946 159.664H495.858ZM543.303 126.928L557.607 124.624V139.504H574.791V151.408H557.607V169.168C557.607 172.176 558.119 174.576 559.143 176.368C560.231 178.16 562.375 179.056 565.575 179.056C567.111 179.056 568.679 178.928 570.279 178.672C571.943 178.352 573.447 177.936 574.791 177.424L576.807 188.56C575.079 189.264 573.159 189.872 571.047 190.384C568.935 190.896 566.343 191.152 563.271 191.152C559.367 191.152 556.135 190.64 553.575 189.616C551.015 188.528 548.967 187.056 547.431 185.2C545.895 183.28 544.807 180.976 544.167 178.288C543.591 175.6 543.303 172.624 543.303 169.36V126.928ZM631.796 164.656C631.796 168.624 631.22 172.272 630.068 175.6C628.916 178.864 627.252 181.68 625.076 184.048C622.9 186.352 620.276 188.144 617.204 189.424C614.196 190.704 610.804 191.344 607.028 191.344C603.316 191.344 599.924 190.704 596.852 189.424C593.844 188.144 591.252 186.352 589.076 184.048C586.9 181.68 585.204 178.864 583.988 175.6C582.772 172.272 582.164 168.624 582.164 164.656C582.164 160.688 582.772 157.072 583.988 153.808C585.268 150.544 586.996 147.76 589.172 145.456C591.412 143.152 594.036 141.36 597.044 140.08C600.116 138.8 603.444 138.16 607.028 138.16C610.676 138.16 614.004 138.8 617.012 140.08C620.084 141.36 622.708 143.152 624.884 145.456C627.06 147.76 628.756 150.544 629.972 153.808C631.188 157.072 631.796 160.688 631.796 164.656ZM617.204 164.656C617.204 160.24 616.308 156.784 614.516 154.288C612.788 151.728 610.292 150.448 607.028 150.448C603.764 150.448 601.236 151.728 599.444 154.288C597.652 156.784 596.756 160.24 596.756 164.656C596.756 169.072 597.652 172.592 599.444 175.216C601.236 177.776 603.764 179.056 607.028 179.056C610.292 179.056 612.788 177.776 614.516 175.216C616.308 172.592 617.204 169.072 617.204 164.656ZM665.459 126.928L679.763 124.624V139.504H696.947V151.408H679.763V169.168C679.763 172.176 680.275 174.576 681.299 176.368C682.387 178.16 684.531 179.056 687.731 179.056C689.267 179.056 690.835 178.928 692.435 178.672C694.099 178.352 695.603 177.936 696.947 177.424L698.963 188.56C697.235 189.264 695.315 189.872 693.203 190.384C691.091 190.896 688.499 191.152 685.427 191.152C681.523 191.152 678.291 190.64 675.731 189.616C673.171 188.528 671.123 187.056 669.587 185.2C668.051 183.28 666.963 180.976 666.323 178.288C665.747 175.6 665.459 172.624 665.459 169.36V126.928ZM708.595 190V117.808L722.899 115.504V139.696C723.859 139.376 725.075 139.088 726.547 138.832C728.083 138.512 729.555 138.352 730.963 138.352C735.059 138.352 738.451 138.928 741.139 140.08C743.891 141.168 746.067 142.736 747.667 144.784C749.331 146.832 750.483 149.264 751.123 152.08C751.827 154.896 752.179 158.032 752.179 161.488V190H737.875V163.216C737.875 158.608 737.267 155.344 736.051 153.424C734.899 151.504 732.723 150.544 729.523 150.544C728.243 150.544 727.027 150.672 725.875 150.928C724.787 151.12 723.795 151.344 722.899 151.6V190H708.595ZM762.726 165.136C762.726 160.656 763.398 156.752 764.742 153.424C766.15 150.032 767.974 147.216 770.214 144.976C772.454 142.736 775.014 141.04 777.894 139.888C780.838 138.736 783.846 138.16 786.918 138.16C794.086 138.16 799.75 140.368 803.91 144.784C808.07 149.136 810.15 155.568 810.15 164.08C810.15 164.912 810.118 165.84 810.054 166.864C809.99 167.824 809.926 168.688 809.862 169.456H777.414C777.734 172.4 779.11 174.736 781.542 176.464C783.974 178.192 787.238 179.056 791.334 179.056C793.958 179.056 796.518 178.832 799.014 178.384C801.574 177.872 803.654 177.264 805.254 176.56L807.174 188.176C806.406 188.56 805.382 188.944 804.102 189.328C802.822 189.712 801.382 190.032 799.782 190.288C798.246 190.608 796.582 190.864 794.79 191.056C792.998 191.248 791.206 191.344 789.414 191.344C784.87 191.344 780.902 190.672 777.51 189.328C774.182 187.984 771.398 186.16 769.158 183.856C766.982 181.488 765.35 178.704 764.262 175.504C763.238 172.304 762.726 168.848 762.726 165.136ZM796.326 159.664C796.262 158.448 796.038 157.264 795.654 156.112C795.334 154.96 794.79 153.936 794.022 153.04C793.318 152.144 792.39 151.408 791.238 150.832C790.15 150.256 788.774 149.968 787.11 149.968C785.51 149.968 784.134 150.256 782.982 150.832C781.83 151.344 780.87 152.048 780.102 152.944C779.334 153.84 778.726 154.896 778.278 156.112C777.894 157.264 777.606 158.448 777.414 159.664H796.326Z" fill="white"/>
<mask id="mask0_4_199" style="mask-type:alpha" maskUnits="userSpaceOnUse" x="112" y="237" width="1551" height="182">
<path d="M163 241.75C166 247.25 169.417 254.083 173.25 262.25C177.25 270.25 181.333 279 185.5 288.5C189.833 297.833 194.083 307.417 198.25 317.25C202.417 327.083 206.333 336.333 210 345C213.667 336.333 217.583 327.083 221.75 317.25C225.917 307.417 230.083 297.833 234.25 288.5C238.583 279 242.667 270.25 246.5 262.25C250.5 254.083 254 247.25 257 241.75H292.5C294.167 253.25 295.667 266.167 297 280.5C298.5 294.667 299.75 309.5 300.75 325C301.917 340.333 302.917 355.75 303.75 371.25C304.75 386.75 305.583 401.333 306.25 415H268.25C267.75 398.167 267.083 379.833 266.25 360C265.417 340.167 264.167 320.167 262.5 300C259.5 307 256.167 314.75 252.5 323.25C248.833 331.75 245.167 340.25 241.5 348.75C238 357.25 234.583 365.417 231.25 373.25C227.917 380.917 225.083 387.5 222.75 393H195.5C193.167 387.5 190.333 380.917 187 373.25C183.667 365.417 180.167 357.25 176.5 348.75C173 340.25 169.417 331.75 165.75 323.25C162.083 314.75 158.75 307 155.75 300C154.083 320.167 152.833 340.167 152 360C151.167 379.833 150.5 398.167 150 415H112C112.667 401.333 113.417 386.75 114.25 371.25C115.25 355.75 116.25 340.333 117.25 325C118.417 309.5 119.667 294.667 121 280.5C122.5 266.167 124.083 253.25 125.75 241.75H163ZM457.365 415C455.532 409 453.449 402.833 451.115 396.5C448.949 390.167 446.782 383.833 444.615 377.5H377.115C374.949 383.833 372.699 390.167 370.365 396.5C368.199 402.833 366.199 409 364.365 415H323.865C330.365 396.333 336.532 379.083 342.365 363.25C348.199 347.417 353.865 332.5 359.365 318.5C365.032 304.5 370.532 291.25 375.865 278.75C381.365 266.083 387.032 253.75 392.865 241.75H430.115C435.782 253.75 441.365 266.083 446.865 278.75C452.365 291.25 457.865 304.5 463.365 318.5C469.032 332.5 474.782 347.417 480.615 363.25C486.449 379.083 492.615 396.333 499.115 415H457.365ZM410.615 281C409.782 283.5 408.532 286.917 406.865 291.25C405.199 295.583 403.282 300.583 401.115 306.25C398.949 311.917 396.532 318.167 393.865 325C391.365 331.833 388.782 339 386.115 346.5H435.365C432.699 339 430.115 331.833 427.615 325C425.115 318.167 422.699 311.917 420.365 306.25C418.199 300.583 416.282 295.583 414.615 291.25C412.949 286.917 411.615 283.5 410.615 281ZM572.291 239.75C598.291 239.75 618.208 244.417 632.041 253.75C645.874 262.917 652.791 277.25 652.791 296.75C652.791 308.917 649.958 318.833 644.291 326.5C638.791 334 630.791 339.917 620.291 344.25C623.791 348.583 627.458 353.583 631.291 359.25C635.124 364.75 638.874 370.583 642.541 376.75C646.374 382.75 650.041 389.083 653.541 395.75C657.041 402.25 660.291 408.667 663.291 415H619.541C616.374 409.333 613.124 403.583 609.791 397.75C606.624 391.917 603.291 386.25 599.791 380.75C596.458 375.25 593.124 370.083 589.791 365.25C586.458 360.25 583.124 355.75 579.791 351.75H560.541V415H521.541V244.25C530.041 242.583 538.791 241.417 547.791 240.75C556.958 240.083 565.124 239.75 572.291 239.75ZM574.541 273C571.708 273 569.124 273.083 566.791 273.25C564.624 273.417 562.541 273.583 560.541 273.75V320.75H571.541C586.208 320.75 596.708 318.917 603.041 315.25C609.374 311.583 612.541 305.333 612.541 296.5C612.541 288 609.291 282 602.791 278.5C596.458 274.833 587.041 273 574.541 273ZM790.539 415C787.039 409.333 782.872 403.25 778.039 396.75C773.372 390.083 768.206 383.5 762.539 377C757.039 370.333 751.289 364 745.289 358C739.289 351.833 733.289 346.417 727.289 341.75V415H688.289V241.75H727.289V307.25C737.456 296.583 747.622 285.5 757.789 274C768.122 262.333 777.706 251.583 786.539 241.75H832.789C820.956 255.75 809.039 269.25 797.039 282.25C785.206 295.25 772.706 308.333 759.539 321.5C773.372 333 786.706 346.667 799.539 362.5C812.539 378.333 824.956 395.833 836.789 415H790.539ZM859.188 415V241.75H976.188V274.5H898.188V308.5H967.438V340.5H898.188V382.25H981.938V415H859.188ZM1139.3 241.75V275H1087.05V415H1048.05V275H995.799V241.75H1139.3ZM1191.25 328.25C1191.25 336.75 1192.25 344.417 1194.25 351.25C1196.42 358.083 1199.42 364 1203.25 369C1207.25 373.833 1212.09 377.583 1217.75 380.25C1223.42 382.917 1229.92 384.25 1237.25 384.25C1244.42 384.25 1250.84 382.917 1256.5 380.25C1262.34 377.583 1267.17 373.833 1271 369C1275 364 1278 358.083 1280 351.25C1282.17 344.417 1283.25 336.75 1283.25 328.25C1283.25 319.75 1282.17 312.083 1280 305.25C1278 298.25 1275 292.333 1271 287.5C1267.17 282.5 1262.34 278.667 1256.5 276C1250.84 273.333 1244.42 272 1237.25 272C1229.92 272 1223.42 273.417 1217.75 276.25C1212.09 278.917 1207.25 282.75 1203.25 287.75C1199.42 292.583 1196.42 298.5 1194.25 305.5C1192.25 312.333 1191.25 319.917 1191.25 328.25ZM1323.5 328.25C1323.5 343.083 1321.25 356.167 1316.75 367.5C1312.42 378.667 1306.42 388.083 1298.75 395.75C1291.09 403.25 1281.92 408.917 1271.25 412.75C1260.75 416.583 1249.42 418.5 1237.25 418.5C1225.42 418.5 1214.25 416.583 1203.75 412.75C1193.25 408.917 1184.09 403.25 1176.25 395.75C1168.42 388.083 1162.25 378.667 1157.75 367.5C1153.25 356.167 1151 343.083 1151 328.25C1151 313.417 1153.34 300.417 1158 289.25C1162.67 277.917 1168.92 268.417 1176.75 260.75C1184.75 253.083 1193.92 247.333 1204.25 243.5C1214.75 239.667 1225.75 237.75 1237.25 237.75C1249.09 237.75 1260.25 239.667 1270.75 243.5C1281.25 247.333 1290.42 253.083 1298.25 260.75C1306.09 268.417 1312.25 277.917 1316.75 289.25C1321.25 300.417 1323.5 313.417 1323.5 328.25ZM1478.65 241.75V275H1426.4V415H1387.4V275H1335.15V241.75H1478.65ZM1530.61 328.25C1530.61 336.75 1531.61 344.417 1533.61 351.25C1535.78 358.083 1538.78 364 1542.61 369C1546.61 373.833 1551.44 377.583 1557.11 380.25C1562.78 382.917 1569.28 384.25 1576.61 384.25C1583.78 384.25 1590.19 382.917 1595.86 380.25C1601.69 377.583 1606.53 373.833 1610.36 369C1614.36 364 1617.36 358.083 1619.36 351.25C1621.53 344.417 1622.61 336.75 1622.61 328.25C1622.61 319.75 1621.53 312.083 1619.36 305.25C1617.36 298.25 1614.36 292.333 1610.36 287.5C1606.53 282.5 1601.69 278.667 1595.86 276C1590.19 273.333 1583.78 272 1576.61 272C1569.28 272 1562.78 273.417 1557.11 276.25C1551.44 278.917 1546.61 282.75 1542.61 287.75C1538.78 292.583 1535.78 298.5 1533.61 305.5C1531.61 312.333 1530.61 319.917 1530.61 328.25ZM1662.86 328.25C1662.86 343.083 1660.61 356.167 1656.11 367.5C1651.78 378.667 1645.78 388.083 1638.11 395.75C1630.44 403.25 1621.28 408.917 1610.61 412.75C1600.11 416.583 1588.78 418.5 1576.61 418.5C1564.78 418.5 1553.61 416.583 1543.11 412.75C1532.61 408.917 1523.44 403.25 1515.61 395.75C1507.78 388.083 1501.61 378.667 1497.11 367.5C1492.61 356.167 1490.36 343.083 1490.36 328.25C1490.36 313.417 1492.69 300.417 1497.36 289.25C1502.03 277.917 1508.28 268.417 1516.11 260.75C1524.11 253.083 1533.28 247.333 1543.61 243.5C1554.11 239.667 1565.11 237.75 1576.61 237.75C1588.44 237.75 1599.61 239.667 1610.11 243.5C1620.61 247.333 1629.78 253.083 1637.61 260.75C1645.44 268.417 1651.61 277.917 1656.11 289.25C1660.61 300.417 1662.86 313.417 1662.86 328.25Z" fill="white"/>
</mask>
<g mask="url(#mask0_4_199)">
<path d="M325 285.5C325 368.619 217.5 285.5 124.5 436C13.7669 436 -76 368.619 -76 285.5C-76 202.381 13.7669 135 124.5 135C235.233 135 325 202.381 325 285.5Z" fill="#948ED8"/>
<path d="M740 430C740 504.558 667.246 565 577.5 565C487.754 565 415 504.558 415 430C415 355.442 496.5 430 577.5 295C667.246 295 740 355.442 740 430Z" fill="#ECB0E9"/>
<path d="M1495 237C1495 299.96 1448.5 263 1350 351C1269.92 351 1205 299.96 1205 237C1205 174.04 1269.92 123 1350 123C1430.08 123 1495 174.04 1495 237Z" fill="#5D53CD"/>
</g>
<path d="M955.626 183.158C948.999 204.232 959.622 218.483 980.696 225.11C1001.77 231.737 1024.23 220.025 1030.85 198.951C1037.48 177.877 1026.86 163.625 1005.78 156.999C984.708 150.372 962.252 162.084 955.626 183.158Z" fill="url(#paint0_linear_4_199)"/>
<path d="M963.628 457.823C972.106 470.716 972.429 487.166 994.329 472.765C1006.98 464.449 1030.43 437.823 1007.43 418.823C998.951 405.93 976.275 417.76 963.628 426.076C941.929 440.345 955.15 444.93 963.628 457.823Z" fill="#9891D9"/>
<path d="M942.241 461.814C945.823 474.576 937.305 488.128 923.214 492.083C909.123 496.039 894.796 488.9 891.214 476.138C875.581 455.599 896.15 449.825 910.241 445.869C924.332 441.914 946.041 442.052 942.241 461.814Z" fill="#9891D9"/>
<g filter="url(#filter0_ii_4_199)">
<circle cx="883.877" cy="316" r="153" transform="rotate(-1.47074 883.877 316)" fill="#9891D9"/>
</g>
<path d="M818.376 194.5C818.376 216.591 803.968 227 781.876 227C759.785 227 741.876 209.091 741.876 187C741.876 164.909 756.285 154.5 778.376 154.5C800.468 154.5 818.376 172.409 818.376 194.5Z" fill="url(#paint1_linear_4_199)"/>
<path d="M858.64 330.239C863.07 348.82 854.484 366.182 840.261 369.573C826.039 372.964 810.542 361.343 806.113 342.761C801.683 324.18 810.269 306.818 824.492 303.427C838.714 300.036 854.211 311.657 858.64 330.239Z" fill="#F9E8FF" stroke="#DDB9EA" stroke-width="3"/>
<path d="M983.053 340.67C980.103 359.543 965.571 372.35 951.126 370.092C936.68 367.834 926.75 351.203 929.7 332.33C932.65 313.457 947.182 300.65 961.627 302.908C976.073 305.166 986.003 321.797 983.053 340.67Z" fill="#F9E8FF" stroke="#DDB9EA" stroke-width="3"/>
<ellipse cx="833.111" cy="336.5" rx="19.3822" ry="27.7638" transform="rotate(-18.6252 833.111 336.5)" fill="black"/>
<ellipse cx="955.551" cy="335.568" rx="19.3822" ry="27.7638" transform="rotate(9.44295 955.551 335.568)" fill="black"/>
<path d="M804.677 451C796.199 463.893 795.876 480.342 773.976 465.942C761.329 457.626 737.877 431 760.877 412C769.354 399.107 792.03 410.936 804.677 419.253C826.376 433.521 813.155 438.107 804.677 451Z" fill="#9891D9"/>
<path d="M883.877 469C883.877 482.255 872.012 493 857.377 493C842.741 493 830.877 482.255 830.877 469C821.377 445 842.741 445 857.377 445C872.012 445 892.877 451 883.877 469Z" fill="#9891D9"/>
<defs>
<filter id="filter0_ii_4_199" x="716.875" y="155.999" width="331.002" height="323.002" filterUnits="userSpaceOnUse" color-interpolation-filters="sRGB">
<feFlood flood-opacity="0" result="BackgroundImageFix"/>
<feBlend mode="normal" in="SourceGraphic" in2="BackgroundImageFix" result="shape"/>
<feColorMatrix in="SourceAlpha" type="matrix" values="0 0 0 0 0 0 0 0 0 0 0 0 0 0 0 0 0 0 127 0" result="hardAlpha"/>
<feMorphology radius="1" operator="dilate" in="SourceAlpha" result="effect1_innerShadow_4_199"/>
<feOffset dx="-14" dy="-7"/>
<feGaussianBlur stdDeviation="11.5"/>
<feComposite in2="hardAlpha" operator="arithmetic" k2="-1" k3="1"/>
<feColorMatrix type="matrix" values="0 0 0 0 0.5544 0 0 0 0 0.520323 0 0 0 0 0.870833 0 0 0 1 0"/>
<feBlend mode="normal" in2="shape" result="effect1_innerShadow_4_199"/>
<feColorMatrix in="SourceAlpha" type="matrix" values="0 0 0 0 0 0 0 0 0 0 0 0 0 0 0 0 0 0 127 0" result="hardAlpha"/>
<feOffset dx="11" dy="10"/>
<feGaussianBlur stdDeviation="7"/>
<feComposite in2="hardAlpha" operator="arithmetic" k2="-1" k3="1"/>
<feColorMatrix type="matrix" values="0 0 0 0 0.73268 0 0 0 0 0.710174 0 0 0 0 0.941667 0 0 0 1 0"/>
<feBlend mode="normal" in2="effect1_innerShadow_4_199" result="effect2_innerShadow_4_199"/>
</filter>
<linearGradient id="paint0_linear_4_199" x1="1004.11" y1="156.474" x2="915.242" y2="198.239" gradientUnits="userSpaceOnUse">
<stop stop-color="#DDB8EA"/>
<stop offset="0.549167" stop-color="#9891D9"/>
</linearGradient>
<linearGradient id="paint1_linear_4_199" x1="780.126" y1="154.5" x2="852.376" y2="221" gradientUnits="userSpaceOnUse">
<stop stop-color="#DDB8EA"/>
<stop offset="0.549167" stop-color="#9891D9"/>
</linearGradient>
</defs>
</svg>
