<svg width="32" height="32" viewBox="0 0 32 32" fill="none" xmlns="http://www.w3.org/2000/svg">
<path d="M9.33333 24C7.86666 24 6.68 25.2 6.68 26.6667C6.68 28.1334 7.86666 29.3334 9.33333 29.3334C10.8 29.3334 12 28.1334 12 26.6667C12 25.2 10.8 24 9.33333 24ZM1.33333 2.66669V5.33335H3.99999L8.79999 15.4534L6.99999 18.72C6.78666 19.0934 6.66666 19.5334 6.66666 20C6.66666 21.4667 7.86666 22.6667 9.33333 22.6667H25.3333V20H9.89333C9.70666 20 9.55999 19.8534 9.55999 19.6667L9.59999 19.5067L10.8 17.3334H20.7333C21.7333 17.3334 22.6133 16.7867 23.0667 15.96L27.84 7.30669C27.9467 7.12002 28 6.89335 28 6.66669C28 5.93335 27.4 5.33335 26.6667 5.33335H6.94666L5.69333 2.66669H1.33333ZM22.6667 24C21.2 24 20.0133 25.2 20.0133 26.6667C20.0133 28.1334 21.2 29.3334 22.6667 29.3334C24.1333 29.3334 25.3333 28.1334 25.3333 26.6667C25.3333 25.2 24.1333 24 22.6667 24Z" fill="black"/>
</svg>
